<!-- Generated by IcoMoon.io -->
<svg version="1.1" xmlns="http://www.w3.org/2000/svg" width="1024" height="1024" viewBox="0 0 1024 1024">
<title></title>
<g id="icomoon-ignore">
</g>
<path fill="#000" d="M871.328 472.8c-43.968-121.824-151.2-215.328-284.512-245.088 34.144-49.024 90.752-81.248 155.040-81.248 104.448 0 189.088 84.672 189.088 189.12 0 54.208-23.104 102.752-59.616 137.216zM507.648 153.568v118.912c181.44 7.392 326.368 156.416 326.368 339.648 0 76.544-25.568 146.944-68.16 203.744l78.848 136.608-65.504 37.856-67.488-116.928c-59.072 49.376-135.072 79.168-218.048 79.168-82.528 0-158.176-29.408-217.088-78.24l-69.28 119.904-65.504-37.856 80.512-139.392c-43.136-57.024-68.992-127.84-68.992-204.864 0-182.016 142.976-330.208 322.688-339.456v-119.104c-18.336-6.56-31.648-23.68-31.648-44.32 0-26.24 21.28-47.488 47.488-47.488 26.24 0 47.52 21.28 47.52 47.488-0.032 20.64-13.344 37.76-31.712 44.32zM228.896 612.128c0 146.24 118.528 264.736 264.736 264.736 146.176 0 264.736-118.496 264.736-264.736 0-146.176-118.56-264.704-264.736-264.704-146.208-0.032-264.736 118.528-264.736 264.704zM572.992 669.376h-95.008c-17.504 0-31.68-14.176-31.68-31.68v-126.688c0-17.504 14.176-31.68 31.68-31.68 17.472 0 31.648 14.176 31.648 31.68v95.008h63.328c17.504 0 31.68 14.176 31.68 31.68s-14.144 31.68-31.648 31.68zM120.704 472.8c-36.544-34.496-59.648-83.008-59.648-137.216 0-104.448 84.672-189.12 189.12-189.12 64.256 0 120.832 32.224 155.040 81.248-133.312 29.76-240.544 123.264-284.512 245.088z"></path>
</svg>
